<?xml version="1.0" encoding="UTF-8"?>
<svg width="2136px" height="2671px" viewBox="0 0 2136 2671" version="1.1" xmlns="http://www.w3.org/2000/svg" xmlns:xlink="http://www.w3.org/1999/xlink">
    <title>Group</title>
    <g id="Screens" stroke="none" stroke-width="1" fill="none" fill-rule="evenodd" opacity="0.685105097">
        <g id="Character-Detail" transform="translate(-97.000000, 42.000000)" fill="#F9873D">
            <g id="Group" transform="translate(1165.267058, 1293.721628) rotate(-60.000000) translate(-1165.267058, -1293.721628) translate(-79.732942, 779.721628)">
                <g id="Group-4" opacity="0.247767857" transform="translate(1249.141016, 497.330127) rotate(-102.000000) translate(-1249.141016, -497.330127) translate(999.141016, -717.669873)">
                    <circle id="Oval-Copy-4" cx="265.226269" cy="17.2519723" r="10.5"></circle>
                    <circle id="Oval-Copy-5" cx="265.226269" cy="75.2347284" r="10.5"></circle>
                    <circle id="Oval-Copy-6" cx="265.933376" cy="133.924591" r="10.5"></circle>
                    <circle id="Oval-Copy-7" cx="265.226269" cy="192.614454" r="10.5"></circle>
                    <circle id="Oval-Copy-8" cx="265.226269" cy="250.59721" r="10.5"></circle>
                    <circle id="Oval-Copy-9" cx="265.933376" cy="309.287073" r="10.5"></circle>
                    <circle id="Oval-Copy-10" cx="265.226269" cy="367.976936" r="10.5"></circle>
                    <circle id="Oval-Copy-11" cx="265.226269" cy="425.959692" r="10.5"></circle>
                    <circle id="Oval-Copy-12" cx="265.933376" cy="484.649555" r="10.5"></circle>
                    <circle id="Oval-Copy-13" cx="265.226269" cy="543.339418" r="10.5"></circle>
                    <circle id="Oval-Copy-14" cx="265.226269" cy="601.322174" r="10.5"></circle>
                    <circle id="Oval-Copy-15" cx="265.933376" cy="660.012036" r="10.5"></circle>
                    <circle id="Oval-Copy-16" cx="265.226269" cy="718.701899" r="10.5"></circle>
                    <circle id="Oval-Copy-17" cx="265.226269" cy="776.684655" r="10.5"></circle>
                    <circle id="Oval-Copy-18" cx="265.933376" cy="835.374518" r="10.5"></circle>
                    <circle id="Oval-Copy-19" cx="265.226269" cy="894.064381" r="10.5"></circle>
                    <circle id="Oval-Copy-20" cx="265.226269" cy="952.047137" r="10.5"></circle>
                    <circle id="Oval-Copy-21" cx="265.226269" cy="1010.02989" r="10.5"></circle>
                    <circle id="Oval-Copy-22" cx="265.933376" cy="1068.71976" r="10.5"></circle>
                    <circle id="Oval-Copy-23" cx="265.226269" cy="1127.40962" r="10.5"></circle>
                    <circle id="Oval-Copy-24" cx="265.226269" cy="1185.39237" r="10.5"></circle>
                    <circle id="Oval-Copy-25" cx="265.933376" cy="1244.08224" r="10.5"></circle>
                    <circle id="Oval-Copy-26" cx="265.226269" cy="1302.7721" r="10.5"></circle>
                    <circle id="Oval-Copy-27" cx="265.226269" cy="1360.75486" r="10.5"></circle>
                    <circle id="Oval-Copy-28" cx="265.933376" cy="1419.44472" r="10.5"></circle>
                    <circle id="Oval-Copy-29" cx="265.226269" cy="1478.13458" r="10.5"></circle>
                    <circle id="Oval-Copy-30" cx="265.226269" cy="1536.11734" r="10.5"></circle>
                    <circle id="Oval-Copy-31" cx="265.933376" cy="1594.8072" r="10.5"></circle>
                    <circle id="Oval-Copy-32" cx="265.226269" cy="1653.49706" r="10.5"></circle>
                    <circle id="Oval-Copy-33" cx="265.226269" cy="1711.47982" r="10.5"></circle>
                    <circle id="Oval-Copy-34" cx="265.933376" cy="1770.16968" r="10.5"></circle>
                    <circle id="Oval-Copy-35" cx="265.226269" cy="1828.85955" r="10.5"></circle>
                    <circle id="Oval-Copy-36" cx="265.226269" cy="1886.8423" r="10.5"></circle>
                    <circle id="Oval-Copy-37" cx="265.933376" cy="1945.53216" r="10.5"></circle>
                    <circle id="Oval-Copy-113" cx="318.966384" cy="17.2519723" r="8.5"></circle>
                    <circle id="Oval-Copy-118" cx="368.463859" cy="16.5448655" r="7"></circle>
                    <circle id="Oval-Copy-177" cx="414.4258" cy="17.2519723" r="5"></circle>
                    <circle id="Oval-Copy-239" cx="457.559314" cy="17.2519723" r="3.5"></circle>
                    <circle id="Oval-Copy-322" cx="497.157293" cy="17.2519723" r="1.5"></circle>
                    <circle id="Oval-Copy-323" cx="497.157293" cy="75.2347284" r="1.5"></circle>
                    <circle id="Oval-Copy-324" cx="497.8644" cy="133.924591" r="1.5"></circle>
                    <circle id="Oval-Copy-325" cx="497.157293" cy="192.614454" r="1.5"></circle>
                    <circle id="Oval-Copy-326" cx="497.157293" cy="250.59721" r="1.5"></circle>
                    <circle id="Oval-Copy-327" cx="497.8644" cy="309.287073" r="1.5"></circle>
                    <circle id="Oval-Copy-328" cx="497.157293" cy="367.976936" r="1.5"></circle>
                    <circle id="Oval-Copy-329" cx="497.157293" cy="425.959692" r="1.5"></circle>
                    <circle id="Oval-Copy-330" cx="497.8644" cy="484.649555" r="1.5"></circle>
                    <circle id="Oval-Copy-331" cx="497.157293" cy="543.339418" r="1.5"></circle>
                    <circle id="Oval-Copy-332" cx="497.157293" cy="601.322174" r="1.5"></circle>
                    <circle id="Oval-Copy-333" cx="497.8644" cy="660.012036" r="1.5"></circle>
                    <circle id="Oval-Copy-334" cx="497.157293" cy="718.701899" r="1.5"></circle>
                    <circle id="Oval-Copy-335" cx="497.157293" cy="776.684655" r="1.5"></circle>
                    <circle id="Oval-Copy-336" cx="497.157293" cy="834.667411" r="1.5"></circle>
                    <circle id="Oval-Copy-337" cx="497.157293" cy="894.064381" r="1.5"></circle>
                    <circle id="Oval-Copy-338" cx="497.157293" cy="952.047137" r="1.5"></circle>
                    <circle id="Oval-Copy-339" cx="497.157293" cy="1010.02989" r="1.5"></circle>
                    <circle id="Oval-Copy-340" cx="497.157293" cy="1069.42686" r="1.5"></circle>
                    <circle id="Oval-Copy-341" cx="497.157293" cy="1127.40962" r="1.5"></circle>
                    <circle id="Oval-Copy-342" cx="497.157293" cy="1185.39237" r="1.5"></circle>
                    <circle id="Oval-Copy-343" cx="497.157293" cy="1244.78934" r="1.5"></circle>
                    <circle id="Oval-Copy-344" cx="497.157293" cy="1302.7721" r="1.5"></circle>
                    <circle id="Oval-Copy-345" cx="497.157293" cy="1360.75486" r="1.5"></circle>
                    <circle id="Oval-Copy-346" cx="497.8644" cy="1419.44472" r="1.5"></circle>
                    <circle id="Oval-Copy-347" cx="497.157293" cy="1478.13458" r="1.5"></circle>
                    <circle id="Oval-Copy-348" cx="497.157293" cy="1536.11734" r="1.5"></circle>
                    <circle id="Oval-Copy-349" cx="497.8644" cy="1594.8072" r="1.5"></circle>
                    <circle id="Oval-Copy-350" cx="497.157293" cy="1653.49706" r="1.5"></circle>
                    <circle id="Oval-Copy-351" cx="497.157293" cy="1711.47982" r="1.5"></circle>
                    <circle id="Oval-Copy-352" cx="497.8644" cy="1770.16968" r="1.5"></circle>
                    <circle id="Oval-Copy-353" cx="497.157293" cy="1828.85955" r="1.5"></circle>
                    <circle id="Oval-Copy-354" cx="497.157293" cy="1886.8423" r="1.5"></circle>
                    <circle id="Oval-Copy-355" cx="497.157293" cy="1944.82506" r="1.5"></circle>
                    <circle id="Oval-Copy-356" cx="497.157293" cy="2004.22203" r="1.5"></circle>
                    <circle id="Oval-Copy-357" cx="497.157293" cy="2062.20478" r="1.5"></circle>
                    <circle id="Oval-Copy-358" cx="497.157293" cy="2120.18754" r="1.5"></circle>
                    <circle id="Oval-Copy-359" cx="497.157293" cy="2179.58451" r="1.5"></circle>
                    <circle id="Oval-Copy-360" cx="497.157293" cy="2237.56727" r="1.5"></circle>
                    <circle id="Oval-Copy-361" cx="497.157293" cy="2295.55002" r="1.5"></circle>
                    <circle id="Oval-Copy-362" cx="497.157293" cy="2354.94699" r="1.5"></circle>
                    <circle id="Oval-Copy-363" cx="497.157293" cy="2412.92975" r="1.5"></circle>
                    <circle id="Oval-Copy-240" cx="457.559314" cy="75.2347284" r="3.5"></circle>
                    <circle id="Oval-Copy-241" cx="458.26642" cy="133.924591" r="3.5"></circle>
                    <circle id="Oval-Copy-242" cx="457.559314" cy="192.614454" r="3.5"></circle>
                    <circle id="Oval-Copy-243" cx="457.559314" cy="250.59721" r="3.5"></circle>
                    <circle id="Oval-Copy-244" cx="458.26642" cy="309.287073" r="3.5"></circle>
                    <circle id="Oval-Copy-245" cx="457.559314" cy="367.976936" r="3.5"></circle>
                    <circle id="Oval-Copy-246" cx="457.559314" cy="425.959692" r="3.5"></circle>
                    <circle id="Oval-Copy-247" cx="458.26642" cy="484.649555" r="3.5"></circle>
                    <circle id="Oval-Copy-248" cx="457.559314" cy="543.339418" r="3.5"></circle>
                    <circle id="Oval-Copy-249" cx="457.559314" cy="601.322174" r="3.5"></circle>
                    <circle id="Oval-Copy-250" cx="458.26642" cy="660.012036" r="3.5"></circle>
                    <circle id="Oval-Copy-251" cx="457.559314" cy="718.701899" r="3.5"></circle>
                    <circle id="Oval-Copy-252" cx="457.559314" cy="776.684655" r="3.5"></circle>
                    <circle id="Oval-Copy-253" cx="458.26642" cy="835.374518" r="3.5"></circle>
                    <circle id="Oval-Copy-254" cx="457.559314" cy="894.064381" r="3.5"></circle>
                    <circle id="Oval-Copy-255" cx="457.559314" cy="952.047137" r="3.5"></circle>
                    <circle id="Oval-Copy-256" cx="457.559314" cy="1010.02989" r="3.5"></circle>
                    <circle id="Oval-Copy-257" cx="458.26642" cy="1068.71976" r="3.5"></circle>
                    <circle id="Oval-Copy-258" cx="457.559314" cy="1127.40962" r="3.5"></circle>
                    <circle id="Oval-Copy-259" cx="457.559314" cy="1185.39237" r="3.5"></circle>
                    <circle id="Oval-Copy-260" cx="458.26642" cy="1244.08224" r="3.5"></circle>
                    <circle id="Oval-Copy-261" cx="457.559314" cy="1302.7721" r="3.5"></circle>
                    <circle id="Oval-Copy-262" cx="457.559314" cy="1360.75486" r="3.5"></circle>
                    <circle id="Oval-Copy-263" cx="458.26642" cy="1419.44472" r="3.5"></circle>
                    <circle id="Oval-Copy-264" cx="457.559314" cy="1478.13458" r="3.5"></circle>
                    <circle id="Oval-Copy-265" cx="457.559314" cy="1536.11734" r="3.5"></circle>
                    <circle id="Oval-Copy-266" cx="458.26642" cy="1594.8072" r="3.5"></circle>
                    <circle id="Oval-Copy-267" cx="457.559314" cy="1653.49706" r="3.5"></circle>
                    <circle id="Oval-Copy-268" cx="457.559314" cy="1711.47982" r="3.5"></circle>
                    <circle id="Oval-Copy-269" cx="458.26642" cy="1770.16968" r="3.5"></circle>
                    <circle id="Oval-Copy-270" cx="457.559314" cy="1828.85955" r="3.5"></circle>
                    <circle id="Oval-Copy-271" cx="457.559314" cy="1886.8423" r="3.5"></circle>
                    <circle id="Oval-Copy-272" cx="458.26642" cy="1945.53216" r="3.5"></circle>
                    <circle id="Oval-Copy-182" cx="415.132907" cy="75.9418352" r="5"></circle>
                    <circle id="Oval-Copy-188" cx="415.132907" cy="133.924591" r="5"></circle>
                    <circle id="Oval-Copy-194" cx="414.4258" cy="192.614454" r="5"></circle>
                    <circle id="Oval-Copy-201" cx="415.132907" cy="251.304317" r="5"></circle>
                    <circle id="Oval-Copy-202" cx="415.132907" cy="309.287073" r="5"></circle>
                    <circle id="Oval-Copy-203" cx="414.4258" cy="367.976936" r="5"></circle>
                    <circle id="Oval-Copy-204" cx="414.4258" cy="425.959692" r="5"></circle>
                    <circle id="Oval-Copy-205" cx="415.132907" cy="484.649555" r="5"></circle>
                    <circle id="Oval-Copy-206" cx="415.132907" cy="542.632311" r="5"></circle>
                    <circle id="Oval-Copy-207" cx="414.4258" cy="601.322174" r="5"></circle>
                    <circle id="Oval-Copy-208" cx="415.132907" cy="660.012036" r="5"></circle>
                    <circle id="Oval-Copy-209" cx="415.132907" cy="717.994792" r="5"></circle>
                    <circle id="Oval-Copy-210" cx="414.4258" cy="776.684655" r="5"></circle>
                    <circle id="Oval-Copy-211" cx="415.132907" cy="835.374518" r="5"></circle>
                    <circle id="Oval-Copy-212" cx="415.132907" cy="893.357274" r="5"></circle>
                    <circle id="Oval-Copy-213" cx="414.4258" cy="952.047137" r="5"></circle>
                    <circle id="Oval-Copy-214" cx="415.132907" cy="1010.737" r="5"></circle>
                    <circle id="Oval-Copy-215" cx="415.132907" cy="1068.71976" r="5"></circle>
                    <circle id="Oval-Copy-216" cx="414.4258" cy="1127.40962" r="5"></circle>
                    <circle id="Oval-Copy-217" cx="415.132907" cy="1186.09948" r="5"></circle>
                    <circle id="Oval-Copy-218" cx="415.132907" cy="1244.08224" r="5"></circle>
                    <circle id="Oval-Copy-219" cx="414.4258" cy="1302.7721" r="5"></circle>
                    <circle id="Oval-Copy-220" cx="415.132907" cy="1361.46196" r="5"></circle>
                    <circle id="Oval-Copy-221" cx="415.132907" cy="1419.44472" r="5"></circle>
                    <circle id="Oval-Copy-222" cx="414.4258" cy="1478.13458" r="5"></circle>
                    <circle id="Oval-Copy-223" cx="414.4258" cy="1536.11734" r="5"></circle>
                    <circle id="Oval-Copy-224" cx="415.132907" cy="1594.8072" r="5"></circle>
                    <circle id="Oval-Copy-225" cx="414.4258" cy="1653.49706" r="5"></circle>
                    <circle id="Oval-Copy-226" cx="414.4258" cy="1711.47982" r="5"></circle>
                    <circle id="Oval-Copy-227" cx="415.132907" cy="1770.16968" r="5"></circle>
                    <circle id="Oval-Copy-228" cx="415.132907" cy="1828.15244" r="5"></circle>
                    <circle id="Oval-Copy-229" cx="414.4258" cy="1886.8423" r="5"></circle>
                    <circle id="Oval-Copy-230" cx="415.132907" cy="1945.53216" r="5"></circle>
                    <circle id="Oval-Copy-114" cx="318.966384" cy="75.2347284" r="8.5"></circle>
                    <circle id="Oval-Copy-123" cx="368.463859" cy="75.9418352" r="7"></circle>
                    <circle id="Oval-Copy-115" cx="318.259278" cy="133.924591" r="8.5"></circle>
                    <circle id="Oval-Copy-128" cx="368.463859" cy="133.924591" r="7"></circle>
                    <circle id="Oval-Copy-116" cx="318.966384" cy="192.614454" r="8.5"></circle>
                    <circle id="Oval-Copy-135" cx="368.463859" cy="191.907347" r="7"></circle>
                    <circle id="Oval-Copy-117" cx="318.966384" cy="250.59721" r="8.5"></circle>
                    <circle id="Oval-Copy-141" cx="368.463859" cy="251.304317" r="7"></circle>
                    <circle id="Oval-Copy-119" cx="318.259278" cy="309.287073" r="8.5"></circle>
                    <circle id="Oval-Copy-144" cx="368.463859" cy="310.701287" r="7"></circle>
                    <circle id="Oval-Copy-120" cx="318.966384" cy="367.976936" r="8.5"></circle>
                    <circle id="Oval-Copy-150" cx="368.463859" cy="367.269829" r="7"></circle>
                    <circle id="Oval-Copy-121" cx="318.966384" cy="425.959692" r="8.5"></circle>
                    <circle id="Oval-Copy-154" cx="368.463859" cy="426.666799" r="7"></circle>
                    <circle id="Oval-Copy-122" cx="318.259278" cy="484.649555" r="8.5"></circle>
                    <circle id="Oval-Copy-163" cx="368.463859" cy="484.649555" r="7"></circle>
                    <circle id="Oval-Copy-124" cx="318.966384" cy="543.339418" r="8.5"></circle>
                    <circle id="Oval-Copy-164" cx="368.463859" cy="542.632311" r="7"></circle>
                    <circle id="Oval-Copy-125" cx="318.966384" cy="601.322174" r="8.5"></circle>
                    <circle id="Oval-Copy-165" cx="368.463859" cy="602.02928" r="7"></circle>
                    <circle id="Oval-Copy-126" cx="318.259278" cy="660.012036" r="8.5"></circle>
                    <circle id="Oval-Copy-166" cx="368.463859" cy="660.012036" r="7"></circle>
                    <circle id="Oval-Copy-127" cx="318.966384" cy="718.701899" r="8.5"></circle>
                    <circle id="Oval-Copy-167" cx="368.463859" cy="717.994792" r="7"></circle>
                    <circle id="Oval-Copy-129" cx="318.966384" cy="776.684655" r="8.5"></circle>
                    <circle id="Oval-Copy-168" cx="368.463859" cy="777.391762" r="7"></circle>
                    <circle id="Oval-Copy-130" cx="318.259278" cy="835.374518" r="8.5"></circle>
                    <circle id="Oval-Copy-169" cx="368.463859" cy="835.374518" r="7"></circle>
                    <circle id="Oval-Copy-131" cx="318.966384" cy="894.064381" r="8.5"></circle>
                    <circle id="Oval-Copy-170" cx="368.463859" cy="893.357274" r="7"></circle>
                    <circle id="Oval-Copy-132" cx="318.966384" cy="952.047137" r="8.5"></circle>
                    <circle id="Oval-Copy-171" cx="369.170966" cy="952.047137" r="7"></circle>
                    <circle id="Oval-Copy-133" cx="318.259278" cy="1010.737" r="8.5"></circle>
                    <circle id="Oval-Copy-172" cx="368.463859" cy="1010.737" r="7"></circle>
                    <circle id="Oval-Copy-134" cx="318.259278" cy="1068.71976" r="8.5"></circle>
                    <circle id="Oval-Copy-173" cx="368.463859" cy="1068.71976" r="7"></circle>
                    <circle id="Oval-Copy-136" cx="318.966384" cy="1127.40962" r="8.5"></circle>
                    <circle id="Oval-Copy-174" cx="368.463859" cy="1126.70251" r="7"></circle>
                    <circle id="Oval-Copy-137" cx="318.966384" cy="1185.39237" r="8.5"></circle>
                    <circle id="Oval-Copy-175" cx="368.463859" cy="1186.09948" r="7"></circle>
                    <circle id="Oval-Copy-138" cx="318.259278" cy="1244.08224" r="8.5"></circle>
                    <circle id="Oval-Copy-176" cx="368.463859" cy="1244.08224" r="7"></circle>
                    <circle id="Oval-Copy-139" cx="318.966384" cy="1302.7721" r="8.5"></circle>
                    <circle id="Oval-Copy-140" cx="318.966384" cy="1360.75486" r="8.5"></circle>
                    <circle id="Oval-Copy-178" cx="368.463859" cy="1302.06499" r="7"></circle>
                    <circle id="Oval-Copy-142" cx="318.259278" cy="1419.44472" r="8.5"></circle>
                    <circle id="Oval-Copy-179" cx="368.463859" cy="1361.46196" r="7"></circle>
                    <circle id="Oval-Copy-143" cx="318.966384" cy="1478.13458" r="8.5"></circle>
                    <circle id="Oval-Copy-180" cx="368.463859" cy="1419.44472" r="7"></circle>
                    <circle id="Oval-Copy-162" cx="318.966384" cy="1536.11734" r="8.5"></circle>
                    <circle id="Oval-Copy-181" cx="368.463859" cy="1477.42748" r="7"></circle>
                    <circle id="Oval-Copy-145" cx="318.259278" cy="1594.8072" r="8.5"></circle>
                    <circle id="Oval-Copy-146" cx="318.966384" cy="1653.49706" r="8.5"></circle>
                    <circle id="Oval-Copy-183" cx="368.463859" cy="1536.82445" r="7"></circle>
                    <circle id="Oval-Copy-147" cx="318.966384" cy="1711.47982" r="8.5"></circle>
                    <circle id="Oval-Copy-184" cx="368.463859" cy="1594.8072" r="7"></circle>
                    <circle id="Oval-Copy-148" cx="318.259278" cy="1770.16968" r="8.5"></circle>
                    <circle id="Oval-Copy-185" cx="368.463859" cy="1652.78996" r="7"></circle>
                    <circle id="Oval-Copy-149" cx="318.966384" cy="1828.85955" r="8.5"></circle>
                    <circle id="Oval-Copy-186" cx="368.463859" cy="1712.18693" r="7"></circle>
                    <circle id="Oval-Copy-151" cx="318.966384" cy="1886.8423" r="8.5"></circle>
                    <circle id="Oval-Copy-187" cx="368.463859" cy="1770.16968" r="7"></circle>
                    <circle id="Oval-Copy-152" cx="318.259278" cy="1945.53216" r="8.5"></circle>
                    <circle id="Oval-Copy-189" cx="368.463859" cy="1828.15244" r="7"></circle>
                    <circle id="Oval-Copy-190" cx="368.463859" cy="1887.54941" r="7"></circle>
                    <circle id="Oval-Copy-191" cx="368.463859" cy="1945.53216" r="7"></circle>
                    <circle id="Oval-Copy-45" cx="265.226269" cy="2412.92975" r="10.5"></circle>
                    <circle id="Oval-Copy-280" cx="457.559314" cy="2412.92975" r="3.5"></circle>
                    <circle id="Oval-Copy-238" cx="414.4258" cy="2412.92975" r="5"></circle>
                    <circle id="Oval-Copy-161" cx="318.966384" cy="2412.92975" r="8.5"></circle>
                    <circle id="Oval-Copy-200" cx="368.463859" cy="2412.22264" r="7"></circle>
                    <circle id="Oval-Copy-321" cx="209.364833" cy="2412.92975" r="12"></circle>
                    <circle id="Oval-Copy-44" cx="265.933376" cy="2354.23988" r="10.5"></circle>
                    <circle id="Oval-Copy-160" cx="318.259278" cy="2354.23988" r="8.5"></circle>
                    <circle id="Oval-Copy-199" cx="368.463859" cy="2354.23988" r="7"></circle>
                    <circle id="Oval-Copy-320" cx="208.657727" cy="2354.23988" r="12"></circle>
                    <circle id="Oval-Copy-279" cx="458.26642" cy="2354.23988" r="3.5"></circle>
                    <circle id="Oval-Copy-237" cx="415.132907" cy="2354.23988" r="5"></circle>
                    <circle id="Oval-Copy-43" cx="265.226269" cy="2295.55002" r="10.5"></circle>
                    <circle id="Oval-Copy-278" cx="457.559314" cy="2295.55002" r="3.5"></circle>
                    <circle id="Oval-Copy-236" cx="415.132907" cy="2296.25713" r="5"></circle>
                    <circle id="Oval-Copy-159" cx="318.966384" cy="2295.55002" r="8.5"></circle>
                    <circle id="Oval-Copy-198" cx="368.463859" cy="2296.25713" r="7"></circle>
                    <circle id="Oval-Copy-319" cx="208.657727" cy="2296.25713" r="12"></circle>
                    <circle id="Oval-Copy-42" cx="265.226269" cy="2237.56727" r="10.5"></circle>
                    <circle id="Oval-Copy-277" cx="457.559314" cy="2237.56727" r="3.5"></circle>
                    <circle id="Oval-Copy-235" cx="414.4258" cy="2237.56727" r="5"></circle>
                    <circle id="Oval-Copy-158" cx="318.966384" cy="2237.56727" r="8.5"></circle>
                    <circle id="Oval-Copy-197" cx="368.463859" cy="2236.86016" r="7"></circle>
                    <circle id="Oval-Copy-318" cx="209.364833" cy="2237.56727" r="12"></circle>
                    <circle id="Oval-Copy-41" cx="265.933376" cy="2178.8774" r="10.5"></circle>
                    <circle id="Oval-Copy-317" cx="208.657727" cy="2178.8774" r="12"></circle>
                    <circle id="Oval-Copy-276" cx="458.26642" cy="2178.8774" r="3.5"></circle>
                    <circle id="Oval-Copy-234" cx="415.132907" cy="2178.8774" r="5"></circle>
                    <circle id="Oval-Copy-157" cx="318.259278" cy="2178.8774" r="8.5"></circle>
                    <circle id="Oval-Copy-196" cx="368.463859" cy="2178.8774" r="7"></circle>
                    <circle id="Oval-Copy-40" cx="265.226269" cy="2120.18754" r="10.5"></circle>
                    <circle id="Oval-Copy-275" cx="457.559314" cy="2120.18754" r="3.5"></circle>
                    <circle id="Oval-Copy-233" cx="415.132907" cy="2120.89465" r="5"></circle>
                    <circle id="Oval-Copy-156" cx="318.259278" cy="2120.89465" r="8.5"></circle>
                    <circle id="Oval-Copy-195" cx="368.463859" cy="2120.89465" r="7"></circle>
                    <circle id="Oval-Copy-316" cx="208.657727" cy="2120.89465" r="12"></circle>
                    <circle id="Oval-Copy-39" cx="265.226269" cy="2062.20478" r="10.5"></circle>
                    <circle id="Oval-Copy-155" cx="318.966384" cy="2062.20478" r="8.5"></circle>
                    <circle id="Oval-Copy-193" cx="368.463859" cy="2062.91189" r="7"></circle>
                    <circle id="Oval-Copy-315" cx="209.364833" cy="2062.20478" r="12"></circle>
                    <circle id="Oval-Copy-274" cx="457.559314" cy="2062.20478" r="3.5"></circle>
                    <circle id="Oval-Copy-232" cx="414.4258" cy="2062.20478" r="5"></circle>
                    <circle id="Oval-Copy-38" cx="265.226269" cy="2004.22203" r="10.5"></circle>
                    <circle id="Oval-Copy-273" cx="457.559314" cy="2004.22203" r="3.5"></circle>
                    <circle id="Oval-Copy-231" cx="415.132907" cy="2003.51492" r="5"></circle>
                    <circle id="Oval-Copy-153" cx="318.966384" cy="2004.22203" r="8.5"></circle>
                    <circle id="Oval-Copy-192" cx="368.463859" cy="2003.51492" r="7"></circle>
                    <circle id="Oval-Copy-314" cx="208.657727" cy="2003.51492" r="12"></circle>
                    <circle id="Oval-Copy-4" cx="209.364833" cy="17.2519723" r="12"></circle>
                    <circle id="Oval-Copy-46" cx="149.260757" cy="17.2519723" r="13.5"></circle>
                    <circle id="Oval-Copy-88" cx="85.6211467" cy="17.2519723" r="15.5"></circle>
                    <circle id="Oval-Copy-381" cx="18.4460025" cy="17.2519723" r="17"></circle>
                    <circle id="Oval-Copy-382" cx="18.4460025" cy="75.2347284" r="17"></circle>
                    <circle id="Oval-Copy-383" cx="17.7388957" cy="133.924591" r="17"></circle>
                    <circle id="Oval-Copy-384" cx="18.4460025" cy="192.614454" r="17"></circle>
                    <circle id="Oval-Copy-385" cx="18.4460025" cy="250.59721" r="17"></circle>
                    <circle id="Oval-Copy-386" cx="17.7388957" cy="309.287073" r="17"></circle>
                    <circle id="Oval-Copy-387" cx="18.4460025" cy="367.976936" r="17"></circle>
                    <circle id="Oval-Copy-388" cx="18.4460025" cy="425.959692" r="17"></circle>
                    <circle id="Oval-Copy-389" cx="17.7388957" cy="484.649555" r="17"></circle>
                    <circle id="Oval-Copy-390" cx="18.4460025" cy="543.339418" r="17"></circle>
                    <circle id="Oval-Copy-391" cx="18.4460025" cy="601.322174" r="17"></circle>
                    <circle id="Oval-Copy-392" cx="17.7388957" cy="660.012036" r="17"></circle>
                    <circle id="Oval-Copy-393" cx="18.4460025" cy="718.701899" r="17"></circle>
                    <circle id="Oval-Copy-394" cx="18.4460025" cy="776.684655" r="17"></circle>
                    <circle id="Oval-Copy-395" cx="17.7388957" cy="835.374518" r="17"></circle>
                    <circle id="Oval-Copy-396" cx="18.4460025" cy="894.064381" r="17"></circle>
                    <circle id="Oval-Copy-397" cx="18.4460025" cy="952.047137" r="17"></circle>
                    <circle id="Oval-Copy-398" cx="17.7388957" cy="1010.737" r="17"></circle>
                    <circle id="Oval-Copy-399" cx="17.7388957" cy="1068.71976" r="17"></circle>
                    <circle id="Oval-Copy-400" cx="18.4460025" cy="1127.40962" r="17"></circle>
                    <circle id="Oval-Copy-401" cx="18.4460025" cy="1185.39237" r="17"></circle>
                    <circle id="Oval-Copy-402" cx="17.7388957" cy="1244.08224" r="17"></circle>
                    <circle id="Oval-Copy-403" cx="18.4460025" cy="1302.7721" r="17"></circle>
                    <circle id="Oval-Copy-404" cx="18.4460025" cy="1360.75486" r="17"></circle>
                    <circle id="Oval-Copy-405" cx="17.7388957" cy="1419.44472" r="17"></circle>
                    <circle id="Oval-Copy-406" cx="18.4460025" cy="1478.13458" r="17"></circle>
                    <circle id="Oval-Copy-407" cx="18.4460025" cy="1536.11734" r="17"></circle>
                    <circle id="Oval-Copy-408" cx="17.7388957" cy="1594.8072" r="17"></circle>
                    <circle id="Oval-Copy-409" cx="18.4460025" cy="1653.49706" r="17"></circle>
                    <circle id="Oval-Copy-410" cx="18.4460025" cy="1711.47982" r="17"></circle>
                    <circle id="Oval-Copy-411" cx="17.7388957" cy="1770.16968" r="17"></circle>
                    <circle id="Oval-Copy-412" cx="18.4460025" cy="1828.85955" r="17"></circle>
                    <circle id="Oval-Copy-413" cx="18.4460025" cy="1886.8423" r="17"></circle>
                    <circle id="Oval-Copy-414" cx="17.7388957" cy="1945.53216" r="17"></circle>
                    <circle id="Oval-Copy-415" cx="18.4460025" cy="2004.22203" r="17"></circle>
                    <circle id="Oval-Copy-416" cx="18.4460025" cy="2062.20478" r="17"></circle>
                    <circle id="Oval-Copy-417" cx="17.7388957" cy="2120.89465" r="17"></circle>
                    <circle id="Oval-Copy-418" cx="17.7388957" cy="2178.8774" r="17"></circle>
                    <circle id="Oval-Copy-419" cx="18.4460025" cy="2237.56727" r="17"></circle>
                    <circle id="Oval-Copy-420" cx="18.4460025" cy="2295.55002" r="17"></circle>
                    <circle id="Oval-Copy-421" cx="17.7388957" cy="2354.23988" r="17"></circle>
                    <circle id="Oval-Copy-422" cx="18.4460025" cy="2412.92975" r="17"></circle>
                    <circle id="Oval-Copy-89" cx="84.9140399" cy="75.9418352" r="15.5"></circle>
                    <circle id="Oval-Copy-90" cx="84.9140399" cy="133.924591" r="15.5"></circle>
                    <circle id="Oval-Copy-91" cx="85.6211467" cy="192.614454" r="15.5"></circle>
                    <circle id="Oval-Copy-92" cx="84.9140399" cy="251.304317" r="15.5"></circle>
                    <circle id="Oval-Copy-93" cx="84.9140399" cy="309.287073" r="15.5"></circle>
                    <circle id="Oval-Copy-94" cx="85.6211467" cy="367.976936" r="15.5"></circle>
                    <circle id="Oval-Copy-95" cx="84.9140399" cy="426.666799" r="15.5"></circle>
                    <circle id="Oval-Copy-96" cx="84.9140399" cy="484.649555" r="15.5"></circle>
                    <circle id="Oval-Copy-97" cx="84.9140399" cy="542.632311" r="15.5"></circle>
                    <circle id="Oval-Copy-98" cx="85.6211467" cy="601.322174" r="15.5"></circle>
                    <circle id="Oval-Copy-99" cx="84.9140399" cy="660.012036" r="15.5"></circle>
                    <circle id="Oval-Copy-100" cx="84.9140399" cy="717.994792" r="15.5"></circle>
                    <circle id="Oval-Copy-101" cx="85.6211467" cy="776.684655" r="15.5"></circle>
                    <circle id="Oval-Copy-102" cx="84.9140399" cy="835.374518" r="15.5"></circle>
                    <circle id="Oval-Copy-103" cx="84.9140399" cy="893.357274" r="15.5"></circle>
                    <circle id="Oval-Copy-104" cx="85.6211467" cy="952.047137" r="15.5"></circle>
                    <circle id="Oval-Copy-105" cx="84.9140399" cy="1010.737" r="15.5"></circle>
                    <circle id="Oval-Copy-106" cx="84.9140399" cy="1068.71976" r="15.5"></circle>
                    <circle id="Oval-Copy-107" cx="85.6211467" cy="1127.40962" r="15.5"></circle>
                    <circle id="Oval-Copy-108" cx="84.9140399" cy="1186.09948" r="15.5"></circle>
                    <circle id="Oval-Copy-109" cx="84.9140399" cy="1244.08224" r="15.5"></circle>
                    <circle id="Oval-Copy-110" cx="85.6211467" cy="1302.7721" r="15.5"></circle>
                    <circle id="Oval-Copy-111" cx="84.9140399" cy="1361.46196" r="15.5"></circle>
                    <circle id="Oval-Copy-112" cx="84.9140399" cy="1419.44472" r="15.5"></circle>
                    <circle id="Oval-Copy-364" cx="85.6211467" cy="1478.13458" r="15.5"></circle>
                    <circle id="Oval-Copy-365" cx="84.9140399" cy="1536.82445" r="15.5"></circle>
                    <circle id="Oval-Copy-366" cx="84.9140399" cy="1594.8072" r="15.5"></circle>
                    <circle id="Oval-Copy-367" cx="84.9140399" cy="1652.78996" r="15.5"></circle>
                    <circle id="Oval-Copy-368" cx="85.6211467" cy="1711.47982" r="15.5"></circle>
                    <circle id="Oval-Copy-369" cx="84.9140399" cy="1770.16968" r="15.5"></circle>
                    <circle id="Oval-Copy-370" cx="84.9140399" cy="1828.15244" r="15.5"></circle>
                    <circle id="Oval-Copy-371" cx="85.6211467" cy="1886.8423" r="15.5"></circle>
                    <circle id="Oval-Copy-372" cx="84.9140399" cy="1945.53216" r="15.5"></circle>
                    <circle id="Oval-Copy-373" cx="84.9140399" cy="2003.51492" r="15.5"></circle>
                    <circle id="Oval-Copy-374" cx="85.6211467" cy="2062.20478" r="15.5"></circle>
                    <circle id="Oval-Copy-375" cx="84.9140399" cy="2120.89465" r="15.5"></circle>
                    <circle id="Oval-Copy-376" cx="84.9140399" cy="2178.8774" r="15.5"></circle>
                    <circle id="Oval-Copy-377" cx="85.6211467" cy="2237.56727" r="15.5"></circle>
                    <circle id="Oval-Copy-378" cx="84.9140399" cy="2296.25713" r="15.5"></circle>
                    <circle id="Oval-Copy-379" cx="84.9140399" cy="2354.23988" r="15.5"></circle>
                    <circle id="Oval-Copy-380" cx="85.6211467" cy="2412.92975" r="15.5"></circle>
                    <circle id="Oval-Copy-47" cx="148.55365" cy="75.9418352" r="13.5"></circle>
                    <circle id="Oval-Copy-48" cx="148.55365" cy="133.924591" r="13.5"></circle>
                    <circle id="Oval-Copy-49" cx="148.55365" cy="191.907347" r="13.5"></circle>
                    <circle id="Oval-Copy-50" cx="148.55365" cy="251.304317" r="13.5"></circle>
                    <circle id="Oval-Copy-51" cx="148.55365" cy="309.287073" r="13.5"></circle>
                    <circle id="Oval-Copy-52" cx="148.55365" cy="367.269829" r="13.5"></circle>
                    <circle id="Oval-Copy-53" cx="148.55365" cy="426.666799" r="13.5"></circle>
                    <circle id="Oval-Copy-54" cx="148.55365" cy="484.649555" r="13.5"></circle>
                    <circle id="Oval-Copy-55" cx="148.55365" cy="542.632311" r="13.5"></circle>
                    <circle id="Oval-Copy-56" cx="148.55365" cy="602.02928" r="13.5"></circle>
                    <circle id="Oval-Copy-57" cx="148.55365" cy="660.012036" r="13.5"></circle>
                    <circle id="Oval-Copy-58" cx="148.55365" cy="717.994792" r="13.5"></circle>
                    <circle id="Oval-Copy-59" cx="149.260757" cy="776.684655" r="13.5"></circle>
                    <circle id="Oval-Copy-60" cx="148.55365" cy="835.374518" r="13.5"></circle>
                    <circle id="Oval-Copy-61" cx="148.55365" cy="893.357274" r="13.5"></circle>
                    <circle id="Oval-Copy-62" cx="149.260757" cy="952.047137" r="13.5"></circle>
                    <circle id="Oval-Copy-63" cx="148.55365" cy="1010.737" r="13.5"></circle>
                    <circle id="Oval-Copy-64" cx="148.55365" cy="1068.71976" r="13.5"></circle>
                    <circle id="Oval-Copy-65" cx="149.260757" cy="1127.40962" r="13.5"></circle>
                    <circle id="Oval-Copy-66" cx="148.55365" cy="1186.09948" r="13.5"></circle>
                    <circle id="Oval-Copy-67" cx="148.55365" cy="1244.08224" r="13.5"></circle>
                    <circle id="Oval-Copy-68" cx="149.260757" cy="1302.7721" r="13.5"></circle>
                    <circle id="Oval-Copy-69" cx="148.55365" cy="1361.46196" r="13.5"></circle>
                    <circle id="Oval-Copy-70" cx="148.55365" cy="1419.44472" r="13.5"></circle>
                    <circle id="Oval-Copy-71" cx="148.55365" cy="1477.42748" r="13.5"></circle>
                    <circle id="Oval-Copy-72" cx="148.55365" cy="1536.82445" r="13.5"></circle>
                    <circle id="Oval-Copy-73" cx="148.55365" cy="1594.8072" r="13.5"></circle>
                    <circle id="Oval-Copy-74" cx="148.55365" cy="1652.78996" r="13.5"></circle>
                    <circle id="Oval-Copy-75" cx="148.55365" cy="1712.18693" r="13.5"></circle>
                    <circle id="Oval-Copy-76" cx="148.55365" cy="1770.16968" r="13.5"></circle>
                    <circle id="Oval-Copy-77" cx="148.55365" cy="1828.15244" r="13.5"></circle>
                    <circle id="Oval-Copy-78" cx="149.260757" cy="1886.8423" r="13.5"></circle>
                    <circle id="Oval-Copy-79" cx="148.55365" cy="1945.53216" r="13.5"></circle>
                    <circle id="Oval-Copy-80" cx="148.55365" cy="2003.51492" r="13.5"></circle>
                    <circle id="Oval-Copy-81" cx="149.260757" cy="2062.20478" r="13.5"></circle>
                    <circle id="Oval-Copy-82" cx="148.55365" cy="2120.89465" r="13.5"></circle>
                    <circle id="Oval-Copy-83" cx="148.55365" cy="2178.8774" r="13.5"></circle>
                    <circle id="Oval-Copy-84" cx="149.260757" cy="2237.56727" r="13.5"></circle>
                    <circle id="Oval-Copy-85" cx="148.55365" cy="2296.25713" r="13.5"></circle>
                    <circle id="Oval-Copy-86" cx="148.55365" cy="2354.23988" r="13.5"></circle>
                    <circle id="Oval-Copy-87" cx="149.260757" cy="2412.92975" r="13.5"></circle>
                    <circle id="Oval-Copy-281" cx="208.657727" cy="75.9418352" r="12"></circle>
                    <circle id="Oval-Copy-282" cx="208.657727" cy="133.924591" r="12"></circle>
                    <circle id="Oval-Copy-283" cx="208.657727" cy="191.907347" r="12"></circle>
                    <circle id="Oval-Copy-284" cx="208.657727" cy="251.304317" r="12"></circle>
                    <circle id="Oval-Copy-285" cx="208.657727" cy="309.287073" r="12"></circle>
                    <circle id="Oval-Copy-286" cx="208.657727" cy="367.269829" r="12"></circle>
                    <circle id="Oval-Copy-287" cx="208.657727" cy="426.666799" r="12"></circle>
                    <circle id="Oval-Copy-288" cx="208.657727" cy="484.649555" r="12"></circle>
                    <circle id="Oval-Copy-289" cx="208.657727" cy="542.632311" r="12"></circle>
                    <circle id="Oval-Copy-290" cx="208.657727" cy="602.02928" r="12"></circle>
                    <circle id="Oval-Copy-291" cx="208.657727" cy="660.012036" r="12"></circle>
                    <circle id="Oval-Copy-292" cx="208.657727" cy="717.994792" r="12"></circle>
                    <circle id="Oval-Copy-293" cx="209.364833" cy="776.684655" r="12"></circle>
                    <circle id="Oval-Copy-294" cx="208.657727" cy="835.374518" r="12"></circle>
                    <circle id="Oval-Copy-295" cx="208.657727" cy="893.357274" r="12"></circle>
                    <circle id="Oval-Copy-296" cx="209.364833" cy="952.047137" r="12"></circle>
                    <circle id="Oval-Copy-297" cx="208.657727" cy="1010.737" r="12"></circle>
                    <circle id="Oval-Copy-298" cx="208.657727" cy="1068.71976" r="12"></circle>
                    <circle id="Oval-Copy-299" cx="209.364833" cy="1127.40962" r="12"></circle>
                    <circle id="Oval-Copy-300" cx="208.657727" cy="1186.09948" r="12"></circle>
                    <circle id="Oval-Copy-301" cx="208.657727" cy="1244.08224" r="12"></circle>
                    <circle id="Oval-Copy-302" cx="209.364833" cy="1302.7721" r="12"></circle>
                    <circle id="Oval-Copy-303" cx="208.657727" cy="1361.46196" r="12"></circle>
                    <circle id="Oval-Copy-304" cx="208.657727" cy="1419.44472" r="12"></circle>
                    <circle id="Oval-Copy-305" cx="208.657727" cy="1477.42748" r="12"></circle>
                    <circle id="Oval-Copy-306" cx="208.657727" cy="1536.82445" r="12"></circle>
                    <circle id="Oval-Copy-307" cx="208.657727" cy="1594.8072" r="12"></circle>
                    <circle id="Oval-Copy-308" cx="208.657727" cy="1652.78996" r="12"></circle>
                    <circle id="Oval-Copy-309" cx="208.657727" cy="1712.18693" r="12"></circle>
                    <circle id="Oval-Copy-310" cx="208.657727" cy="1770.16968" r="12"></circle>
                    <circle id="Oval-Copy-311" cx="208.657727" cy="1828.15244" r="12"></circle>
                    <circle id="Oval-Copy-312" cx="209.364833" cy="1886.8423" r="12"></circle>
                    <circle id="Oval-Copy-313" cx="208.657727" cy="1945.53216" r="12"></circle>
                </g>
            </g>
        </g>
    </g>
</svg>