<svg width="14" height="14" viewBox="0 0 14 14" fill="none" xmlns="http://www.w3.org/2000/svg">
<g id="Group">
<path id="Mask" d="M12.2459 4.10289C12.2459 4.23414 12.2021 4.36675 12.1146 4.4775L7.45386 10.2716C7.34039 10.4125 7.16949 10.4945 6.98765 10.4945C6.80718 10.4945 6.63492 10.4125 6.52281 10.2716L1.88668 4.50211C1.68023 4.24507 1.72125 3.8691 1.97828 3.66265C2.23531 3.45621 2.61129 3.49722 2.81773 3.75425L6.98902 8.9441L11.1836 3.72828C11.39 3.47125 11.766 3.43023 12.023 3.63668C12.1693 3.75562 12.2459 3.92789 12.2459 4.10289Z" fill="black" fill-opacity="0.25"/>
<mask id="mask0_1598_824" style="mask-type:luminance" maskUnits="userSpaceOnUse" x="1" y="3" width="12" height="8">
<path id="Mask_2" d="M12.2459 4.10289C12.2459 4.23414 12.2021 4.36675 12.1146 4.4775L7.45386 10.2716C7.34039 10.4125 7.16949 10.4945 6.98765 10.4945C6.80718 10.4945 6.63492 10.4125 6.52281 10.2716L1.88668 4.50211C1.68023 4.24507 1.72125 3.8691 1.97828 3.66265C2.23531 3.45621 2.61129 3.49722 2.81773 3.75425L6.98902 8.9441L11.1836 3.72828C11.39 3.47125 11.766 3.43023 12.023 3.63668C12.1693 3.75562 12.2459 3.92789 12.2459 4.10289Z" fill="white"/>
</mask>
<g mask="url(#mask0_1598_824)">
</g>
</g>
</svg>
