<svg xmlns="http://www.w3.org/2000/svg" width="24" height="24" viewBox="0 0 24 24" fill="none">
<path fill-rule="evenodd" clip-rule="evenodd" d="M12 0.0234375C5.37835 0.0234375 0.0117188 5.39007 0.0117188 12.0117C0.0117188 18.6334 5.37835 24 12 24C18.6217 24 23.9883 18.6334 23.9883 12.0117C23.9883 5.39007 18.6217 0.0234375 12 0.0234375ZM12 1.70929C13.3908 1.70929 14.7395 1.9809 16.0086 2.5171C17.2355 3.0369 18.336 3.77914 19.2843 4.7251C20.2303 5.67105 20.9748 6.77388 21.4923 8.0008C22.0308 9.27222 22.3025 10.6209 22.3025 12.0117C22.3025 13.4026 22.0308 14.7512 21.4946 16.0203C20.9748 17.2472 20.2326 18.3477 19.2866 19.296C18.3407 20.242 17.2379 20.9866 16.0109 21.504C14.7395 22.0426 13.3908 22.3142 12 22.3142C10.6092 22.3142 9.2605 22.0426 7.99143 21.5064C6.7645 20.9866 5.66401 20.2443 4.71572 19.2984C3.76977 18.3524 3.02518 17.2496 2.50772 16.0227C1.96918 14.7512 1.69757 13.4026 1.69757 12.0117C1.69757 10.6209 1.96918 9.27222 2.50538 8.00314C3.02518 6.77622 3.76743 5.67573 4.71338 4.72744C5.65933 3.78149 6.76216 3.0369 7.98908 2.51944C9.2605 1.9809 10.6092 1.70929 12 1.70929ZM11.3842 16.4488C11.5434 16.6197 11.7659 16.7157 12 16.7157C12.2342 16.7157 12.4566 16.6197 12.6135 16.4511L17.7881 10.93C18.1065 10.5905 18.0902 10.0566 17.7506 9.73817C17.4111 9.41973 16.8773 9.43612 16.5588 9.77563L12 14.6389L7.43884 9.77329C7.1204 9.43378 6.58655 9.41739 6.24704 9.73583C5.90752 10.0543 5.89113 10.5881 6.20957 10.9276L11.3842 16.4488Z" fill="white"/>
</svg>