<svg xmlns="http://www.w3.org/2000/svg" width="26" height="23" viewBox="0 0 26 23" fill="none">
<mask id="path-1-inside-1_1424_498" fill="white">
<path fill-rule="evenodd" clip-rule="evenodd" d="M0.820557 1.71796C0.820557 1.16567 1.26827 0.717957 1.82056 0.717957H24.1795C24.7318 0.717957 25.1795 1.16567 25.1795 1.71796V2.64103C25.1795 3.19332 24.7318 3.64103 24.1795 3.64103H1.82056C1.26827 3.64103 0.820557 3.19332 0.820557 2.64103V1.71796Z"/>
</mask>
<path fill-rule="evenodd" clip-rule="evenodd" d="M0.820557 1.71796C0.820557 1.16567 1.26827 0.717957 1.82056 0.717957H24.1795C24.7318 0.717957 25.1795 1.16567 25.1795 1.71796V2.64103C25.1795 3.19332 24.7318 3.64103 24.1795 3.64103H1.82056C1.26827 3.64103 0.820557 3.19332 0.820557 2.64103V1.71796Z" fill="white"/>
<path d="M1.82056 3.71796H24.1795V-2.28204H1.82056V3.71796ZM22.1795 1.71796V2.64103H28.1795V1.71796H22.1795ZM24.1795 0.641033H1.82056V6.64103H24.1795V0.641033ZM3.82056 2.64103V1.71796H-2.17944V2.64103H3.82056ZM1.82056 0.641033C2.92512 0.641033 3.82056 1.53646 3.82056 2.64103H-2.17944C-2.17944 4.85018 -0.388574 6.64103 1.82056 6.64103V0.641033ZM22.1795 2.64103C22.1795 1.53646 23.075 0.641033 24.1795 0.641033V6.64103C26.3887 6.64103 28.1795 4.85018 28.1795 2.64103H22.1795ZM24.1795 3.71796C23.075 3.71796 22.1795 2.82253 22.1795 1.71796H28.1795C28.1795 -0.491189 26.3887 -2.28204 24.1795 -2.28204V3.71796ZM1.82056 -2.28204C-0.388577 -2.28204 -2.17944 -0.491189 -2.17944 1.71796H3.82056C3.82056 2.82253 2.92512 3.71796 1.82056 3.71796V-2.28204Z" fill="black" mask="url(#path-1-inside-1_1424_498)"/>
<mask id="path-3-inside-2_1424_498" fill="white">
<path fill-rule="evenodd" clip-rule="evenodd" d="M0.820557 10.4872C0.820557 9.9349 1.26827 9.48718 1.82056 9.48718H20.2821C20.8344 9.48718 21.2821 9.9349 21.2821 10.4872V11.4103C21.2821 11.9625 20.8344 12.4103 20.2821 12.4103H1.82056C1.26827 12.4103 0.820557 11.9625 0.820557 11.4103V10.4872Z"/>
</mask>
<path fill-rule="evenodd" clip-rule="evenodd" d="M0.820557 10.4872C0.820557 9.9349 1.26827 9.48718 1.82056 9.48718H20.2821C20.8344 9.48718 21.2821 9.9349 21.2821 10.4872V11.4103C21.2821 11.9625 20.8344 12.4103 20.2821 12.4103H1.82056C1.26827 12.4103 0.820557 11.9625 0.820557 11.4103V10.4872Z" fill="white"/>
<path d="M1.82056 12.4872H20.2821V6.48718H1.82056V12.4872ZM18.2821 10.4872V11.4103H24.2821V10.4872H18.2821ZM20.2821 9.41026H1.82056V15.4103H20.2821V9.41026ZM3.82056 11.4103V10.4872H-2.17944V11.4103H3.82056ZM1.82056 9.41026C2.92513 9.41026 3.82056 10.3057 3.82056 11.4103H-2.17944C-2.17944 13.6194 -0.388583 15.4103 1.82056 15.4103V9.41026ZM18.2821 11.4103C18.2821 10.3057 19.1775 9.41026 20.2821 9.41026V15.4103C22.4912 15.4103 24.2821 13.6194 24.2821 11.4103H18.2821ZM20.2821 12.4872C19.1775 12.4872 18.2821 11.5918 18.2821 10.4872H24.2821C24.2821 8.27804 22.4912 6.48718 20.2821 6.48718V12.4872ZM1.82056 6.48718C-0.388578 6.48718 -2.17944 8.27804 -2.17944 10.4872H3.82056C3.82056 11.5918 2.92512 12.4872 1.82056 12.4872V6.48718Z" fill="black" mask="url(#path-3-inside-2_1424_498)"/>
<mask id="path-5-inside-3_1424_498" fill="white">
<path fill-rule="evenodd" clip-rule="evenodd" d="M0.820557 20.2308C0.820557 19.6785 1.26827 19.2308 1.82056 19.2308H14.4359C14.9882 19.2308 15.4359 19.6785 15.4359 20.2308V21.1539C15.4359 21.7061 14.9882 22.1539 14.4359 22.1539H1.82056C1.26827 22.1539 0.820557 21.7061 0.820557 21.1539V20.2308Z"/>
</mask>
<path fill-rule="evenodd" clip-rule="evenodd" d="M0.820557 20.2308C0.820557 19.6785 1.26827 19.2308 1.82056 19.2308H14.4359C14.9882 19.2308 15.4359 19.6785 15.4359 20.2308V21.1539C15.4359 21.7061 14.9882 22.1539 14.4359 22.1539H1.82056C1.26827 22.1539 0.820557 21.7061 0.820557 21.1539V20.2308Z" fill="white"/>
<path d="M1.82056 22.2308H14.4359V16.2308H1.82056V22.2308ZM12.4359 20.2308V21.1539H18.4359V20.2308H12.4359ZM14.4359 19.1539H1.82056V25.1539H14.4359V19.1539ZM3.82056 21.1539V20.2308H-2.17944V21.1539H3.82056ZM1.82056 19.1539C2.92513 19.1539 3.82056 20.0493 3.82056 21.1539H-2.17944C-2.17944 23.363 -0.388581 25.1539 1.82056 25.1539V19.1539ZM12.4359 21.1539C12.4359 20.0493 13.3314 19.1539 14.4359 19.1539V25.1539C16.6451 25.1539 18.4359 23.363 18.4359 21.1539H12.4359ZM14.4359 22.2308C13.3314 22.2308 12.4359 21.3353 12.4359 20.2308H18.4359C18.4359 18.0216 16.6451 16.2308 14.4359 16.2308V22.2308ZM1.82056 16.2308C-0.388578 16.2308 -2.17944 18.0216 -2.17944 20.2308H3.82056C3.82056 21.3353 2.92512 22.2308 1.82056 22.2308V16.2308Z" fill="black" mask="url(#path-5-inside-3_1424_498)"/>
</svg>