<svg xmlns="http://www.w3.org/2000/svg" width="26" height="28" viewBox="0 0 26 28" fill="none">
<g opacity="0.65">
<path d="M13.9969 13.8626L20.2791 6.9679C20.6588 6.55086 20.6588 5.87655 20.2791 5.46222C19.8994 5.04518 19.2855 5.04518 18.9082 5.46222L12.6236 12.3542L6.33896 5.45951C5.95926 5.04247 5.34535 5.04247 4.96812 5.45951C4.58843 5.87655 4.58843 6.55086 4.96812 6.96519L11.2503 13.8599L4.96812 20.7574C4.58843 21.1744 4.58843 21.8487 4.96812 22.263C5.15796 22.4716 5.40698 22.5745 5.65354 22.5745C5.90256 22.5745 6.14911 22.4716 6.33896 22.263L12.6236 15.3683L18.9082 22.2658C19.0981 22.4743 19.3446 22.5772 19.5937 22.5772C19.8427 22.5772 20.0892 22.4743 20.2791 22.2658C20.6588 21.8487 20.6588 21.1744 20.2791 20.7601L13.9969 13.8626Z" fill="black"/>
</g>
</svg>