<svg xmlns="http://www.w3.org/2000/svg" width="20" height="20" viewBox="0 0 20 20" fill="none">
<mask id="path-1-inside-1_1424_61" fill="white">
<path fill-rule="evenodd" clip-rule="evenodd" d="M1.58733 1.18837C1.97785 0.797844 2.61102 0.797845 3.00154 1.18837L18.8117 16.9985C19.2022 17.3891 19.2022 18.0222 18.8117 18.4128L18.159 19.0655C17.7685 19.456 17.1353 19.456 16.7448 19.0655L0.934614 3.2553C0.54409 2.86477 0.544089 2.23161 0.934613 1.84108L1.58733 1.18837Z"/>
</mask>

<path d="M0.88022 3.30969L16.6904 19.1199L20.933 14.8772L5.12286 -0.932951L0.88022 3.30969ZM16.6904 16.2914L16.0377 16.9442L20.2803 21.1868L20.933 20.5341L16.6904 16.2914ZM18.8661 16.9442L3.05593 1.13398L-1.18671 5.37662L14.6235 21.1868L18.8661 16.9442ZM3.05593 3.9624L3.70865 3.30969L-0.533993 -0.932952L-1.18671 -0.280237L3.05593 3.9624ZM3.05593 1.13398C3.83698 1.91502 3.83699 3.18135 3.05593 3.9624L-1.18671 -0.280237C-2.74881 1.28186 -2.7488 3.81453 -1.18671 5.37662L3.05593 1.13398ZM16.0377 16.9442C16.8187 16.1631 18.0851 16.1631 18.8661 16.9442L14.6235 21.1868C16.1856 22.7489 18.7182 22.7489 20.2803 21.1868L16.0377 16.9442ZM16.6904 19.1199C15.9094 18.3388 15.9093 17.0725 16.6904 16.2914L20.933 20.5341C22.4951 18.972 22.4951 16.4393 20.933 14.8772L16.6904 19.1199ZM5.12286 -0.932951C3.56077 -2.49505 1.02811 -2.49505 -0.533993 -0.932952L3.70865 3.30969C2.9276 4.09074 1.66127 4.09073 0.88022 3.30969L5.12286 -0.932951Z" fill="black" mask="url(#path-1-inside-1_1424_61)"/>
<mask id="path-3-inside-2_1424_61" fill="white">
<path fill-rule="evenodd" clip-rule="evenodd" d="M1.18855 18.4128C0.798027 18.0223 0.798028 17.3891 1.18855 16.9986L16.9987 1.1884C17.3893 0.797877 18.0224 0.797875 18.4129 1.1884L19.0657 1.84111C19.4562 2.23164 19.4562 2.8648 19.0657 3.25533L3.25548 19.0655C2.86496 19.456 2.23179 19.456 1.84127 19.0655L1.18855 18.4128Z"/>
</mask>

<path d="M3.30987 19.1199L19.1201 3.30972L14.8774 -0.932919L-0.932768 14.8773L3.30987 19.1199ZM16.2916 3.30972L16.9443 3.96243L21.187 -0.280206L20.5343 -0.932921L16.2916 3.30972ZM16.9443 1.13401L1.13416 16.9442L5.3768 21.1868L21.187 5.37665L16.9443 1.13401ZM3.96259 16.9442L3.30987 16.2915L-0.932769 20.5341L-0.280054 21.1868L3.96259 16.9442ZM1.13416 16.9442C1.9152 16.1631 3.18153 16.1631 3.96259 16.9442L-0.280054 21.1868C1.28205 22.7489 3.81471 22.7489 5.3768 21.1868L1.13416 16.9442ZM16.9443 3.96243C16.1633 3.18138 16.1633 1.91505 16.9443 1.13401L21.187 5.37665C22.7491 3.81455 22.7491 1.28189 21.187 -0.280206L16.9443 3.96243ZM19.1201 3.30972C18.339 4.09076 17.0727 4.09077 16.2916 3.30972L20.5343 -0.932921C18.9722 -2.49502 16.4395 -2.49501 14.8774 -0.932919L19.1201 3.30972ZM-0.932768 14.8773C-2.49486 16.4394 -2.49487 18.972 -0.932769 20.5341L3.30987 16.2915C4.09092 17.0725 4.09092 18.3389 3.30987 19.1199L-0.932768 14.8773Z" fill="black" mask="url(#path-3-inside-2_1424_61)"/>
</svg>