<svg xmlns="http://www.w3.org/2000/svg" width="42" height="22" viewBox="0 0 42 22" fill="none">
<path d="M29.7253 11.2044L33.043 7.88932C33.2435 7.6888 33.2435 7.36458 33.043 7.16536C32.8424 6.96484 32.5182 6.96484 32.319 7.16536L29 10.4792L25.681 7.16406C25.4805 6.96354 25.1562 6.96354 24.957 7.16406C24.7565 7.36458 24.7565 7.6888 24.957 7.88802L28.2747 11.2031L24.957 14.5195C24.7565 14.7201 24.7565 15.0443 24.957 15.2435C25.0573 15.3438 25.1888 15.3932 25.319 15.3932C25.4505 15.3932 25.5807 15.3438 25.681 15.2435L29 11.9284L32.319 15.2448C32.4193 15.3451 32.5495 15.3945 32.681 15.3945C32.8125 15.3945 32.9427 15.3451 33.043 15.2448C33.2435 15.0443 33.2435 14.7201 33.043 14.5208L29.7253 11.2044Z" fill="white"/>
</svg>